
            <svg id="trend-chart" width="660" height="400" title="Stack Overflow Trends Chart" version="1.1" xmlns="http://www.w3.org/2000/svg"><g></g><g class="chart-area" transform="translate(100, 20)"><g transform="translate(0,300)" fill="none" font-size="10" font-family="sans-serif" text-anchor="middle"><path class="domain" stroke="#000" d="M0.5,6V0.5H410.5V6"></path><g class="tick" opacity="1" transform="translate(14.622951138040861,0)"><line stroke="#000" y2="6" x1="0.5" x2="0.5"></line><text fill="#000" y="9" x="0.5" dy="0.71em" style="font-size: 12px;">2009</text></g><g class="tick" opacity="1" transform="translate(49.49827157616717,0)"><line stroke="#000" y2="6" x1="0.5" x2="0.5"></line><text fill="#000" y="9" x="0.5" dy="0.71em" style="font-size: 12px;">2010</text></g><g class="tick" opacity="1" transform="translate(84.37359201429348,0)"><line stroke="#000" y2="6" x1="0.5" x2="0.5"></line><text fill="#000" y="9" x="0.5" dy="0.71em" style="font-size: 12px;">2011</text></g><g class="tick" opacity="1" transform="translate(119.2489124524198,0)"><line stroke="#000" y2="6" x1="0.5" x2="0.5"></line><text fill="#000" y="9" x="0.5" dy="0.71em" style="font-size: 12px;">2012</text></g><g class="tick" opacity="1" transform="translate(154.21978171366428,0)"><line stroke="#000" y2="6" x1="0.5" x2="0.5"></line><text fill="#000" y="9" x="0.5" dy="0.71em" style="font-size: 12px;">2013</text></g><g class="tick" opacity="1" transform="translate(189.09510215179057,0)"><line stroke="#000" y2="6" x1="0.5" x2="0.5"></line><text fill="#000" y="9" x="0.5" dy="0.71em" style="font-size: 12px;">2014</text></g><g class="tick" opacity="1" transform="translate(223.9704225899169,0)"><line stroke="#000" y2="6" x1="0.5" x2="0.5"></line><text fill="#000" y="9" x="0.5" dy="0.71em" style="font-size: 12px;">2015</text></g><g class="tick" opacity="1" transform="translate(258.8457430280432,0)"><line stroke="#000" y2="6" x1="0.5" x2="0.5"></line><text fill="#000" y="9" x="0.5" dy="0.71em" style="font-size: 12px;">2016</text></g><g class="tick" opacity="1" transform="translate(293.81661228928766,0)"><line stroke="#000" y2="6" x1="0.5" x2="0.5"></line><text fill="#000" y="9" x="0.5" dy="0.71em" style="font-size: 12px;">2017</text></g><g class="tick" opacity="1" transform="translate(328.691932727414,0)"><line stroke="#000" y2="6" x1="0.5" x2="0.5"></line><text fill="#000" y="9" x="0.5" dy="0.71em" style="font-size: 12px;">2018</text></g><g class="tick" opacity="1" transform="translate(363.5672531655403,0)"><line stroke="#000" y2="6" x1="0.5" x2="0.5"></line><text fill="#000" y="9" x="0.5" dy="0.71em" style="font-size: 12px;">2019</text></g><g class="tick" opacity="1" transform="translate(398.4425736036666,0)"><line stroke="#000" y2="6" x1="0.5" x2="0.5"></line><text fill="#000" y="9" x="0.5" dy="0.71em" style="font-size: 12px;">2020</text></g></g><g class="grid-lines" transform="translate(0,300)" fill="none" font-size="10" font-family="sans-serif" text-anchor="middle"><path class="domain" stroke="#000" d="M0.5,-300V0.5H410.5V-300"></path><g class="tick" opacity="1" transform="translate(14.622951138040861,0)"><line stroke="#000" y2="-300" x1="0.5" x2="0.5" style="stroke: #ccc; fill: none;"></line></g><g class="tick" opacity="1" transform="translate(49.49827157616717,0)"><line stroke="#000" y2="-300" x1="0.5" x2="0.5" style="stroke: #ccc; fill: none;"></line></g><g class="tick" opacity="1" transform="translate(84.37359201429348,0)"><line stroke="#000" y2="-300" x1="0.5" x2="0.5" style="stroke: #ccc; fill: none;"></line></g><g class="tick" opacity="1" transform="translate(119.2489124524198,0)"><line stroke="#000" y2="-300" x1="0.5" x2="0.5" style="stroke: #ccc; fill: none;"></line></g><g class="tick" opacity="1" transform="translate(154.21978171366428,0)"><line stroke="#000" y2="-300" x1="0.5" x2="0.5" style="stroke: #ccc; fill: none;"></line></g><g class="tick" opacity="1" transform="translate(189.09510215179057,0)"><line stroke="#000" y2="-300" x1="0.5" x2="0.5" style="stroke: #ccc; fill: none;"></line></g><g class="tick" opacity="1" transform="translate(223.9704225899169,0)"><line stroke="#000" y2="-300" x1="0.5" x2="0.5" style="stroke: #ccc; fill: none;"></line></g><g class="tick" opacity="1" transform="translate(258.8457430280432,0)"><line stroke="#000" y2="-300" x1="0.5" x2="0.5" style="stroke: #ccc; fill: none;"></line></g><g class="tick" opacity="1" transform="translate(293.81661228928766,0)"><line stroke="#000" y2="-300" x1="0.5" x2="0.5" style="stroke: #ccc; fill: none;"></line></g><g class="tick" opacity="1" transform="translate(328.691932727414,0)"><line stroke="#000" y2="-300" x1="0.5" x2="0.5" style="stroke: #ccc; fill: none;"></line></g><g class="tick" opacity="1" transform="translate(363.5672531655403,0)"><line stroke="#000" y2="-300" x1="0.5" x2="0.5" style="stroke: #ccc; fill: none;"></line></g><g class="tick" opacity="1" transform="translate(398.4425736036666,0)"><line stroke="#000" y2="-300" x1="0.5" x2="0.5" style="stroke: #ccc; fill: none;"></line></g></g><text x="205" y="360" class="axis-label x-axis-label" style="text-anchor: middle; font-weight: bold;">Year</text><g fill="none" font-size="10" font-family="sans-serif" text-anchor="end"><path class="domain" stroke="#000" d="M-6,300.5H0.5V0.5H-6"></path><g class="tick" opacity="1" transform="translate(0,300)"><line stroke="#000" x2="-6" y1="0.5" y2="0.5"></line><text fill="#000" x="-9" y="0.5" dy="0.32em" style="font-size: 12px;">0.00%</text></g><g class="tick" opacity="1" transform="translate(0,262.5)"><line stroke="#000" x2="-6" y1="0.5" y2="0.5"></line><text fill="#000" x="-9" y="0.5" dy="0.32em" style="font-size: 12px;">0.05%</text></g><g class="tick" opacity="1" transform="translate(0,225)"><line stroke="#000" x2="-6" y1="0.5" y2="0.5"></line><text fill="#000" x="-9" y="0.5" dy="0.32em" style="font-size: 12px;">0.10%</text></g><g class="tick" opacity="1" transform="translate(0,187.5)"><line stroke="#000" x2="-6" y1="0.5" y2="0.5"></line><text fill="#000" x="-9" y="0.5" dy="0.32em" style="font-size: 12px;">0.15%</text></g><g class="tick" opacity="1" transform="translate(0,150)"><line stroke="#000" x2="-6" y1="0.5" y2="0.5"></line><text fill="#000" x="-9" y="0.5" dy="0.32em" style="font-size: 12px;">0.20%</text></g><g class="tick" opacity="1" transform="translate(0,112.5)"><line stroke="#000" x2="-6" y1="0.5" y2="0.5"></line><text fill="#000" x="-9" y="0.5" dy="0.32em" style="font-size: 12px;">0.25%</text></g><g class="tick" opacity="1" transform="translate(0,75)"><line stroke="#000" x2="-6" y1="0.5" y2="0.5"></line><text fill="#000" x="-9" y="0.5" dy="0.32em" style="font-size: 12px;">0.30%</text></g><g class="tick" opacity="1" transform="translate(0,37.5)"><line stroke="#000" x2="-6" y1="0.5" y2="0.5"></line><text fill="#000" x="-9" y="0.5" dy="0.32em" style="font-size: 12px;">0.35%</text></g><g class="tick" opacity="1" transform="translate(0,0)"><line stroke="#000" x2="-6" y1="0.5" y2="0.5"></line><text fill="#000" x="-9" y="0.5" dy="0.32em" style="font-size: 12px;">0.40%</text></g></g><g class="grid-lines" fill="none" font-size="10" font-family="sans-serif" text-anchor="end"><path class="domain" stroke="#000" d="M410,300.5H0.5V0.5H410"></path><g class="tick" opacity="1" transform="translate(0,300)"><line stroke="#000" x2="410" y1="0.5" y2="0.5" style="stroke: #ccc; fill: none;"></line></g><g class="tick" opacity="1" transform="translate(0,262.5)"><line stroke="#000" x2="410" y1="0.5" y2="0.5" style="stroke: #ccc; fill: none;"></line></g><g class="tick" opacity="1" transform="translate(0,225)"><line stroke="#000" x2="410" y1="0.5" y2="0.5" style="stroke: #ccc; fill: none;"></line></g><g class="tick" opacity="1" transform="translate(0,187.5)"><line stroke="#000" x2="410" y1="0.5" y2="0.5" style="stroke: #ccc; fill: none;"></line></g><g class="tick" opacity="1" transform="translate(0,150)"><line stroke="#000" x2="410" y1="0.5" y2="0.5" style="stroke: #ccc; fill: none;"></line></g><g class="tick" opacity="1" transform="translate(0,112.5)"><line stroke="#000" x2="410" y1="0.5" y2="0.5" style="stroke: #ccc; fill: none;"></line></g><g class="tick" opacity="1" transform="translate(0,75)"><line stroke="#000" x2="410" y1="0.5" y2="0.5" style="stroke: #ccc; fill: none;"></line></g><g class="tick" opacity="1" transform="translate(0,37.5)"><line stroke="#000" x2="410" y1="0.5" y2="0.5" style="stroke: #ccc; fill: none;"></line></g><g class="tick" opacity="1" transform="translate(0,0)"><line stroke="#000" x2="410" y1="0.5" y2="0.5" style="stroke: #ccc; fill: none;"></line></g></g><g class="lines"><path class="line" d="M2.9620135166627826,300L5.828478210207411,300L8.79447292783345,300L11.660937621378078,300L14.622951138040861,300L17.584964654703644,300L20.260331702011964,300L23.21836401771149,300L26.08482871125612,300L29.0468422279189,300L31.913306921463526,300L34.875320438126316,300L37.837333954789095,300L40.70379864833372,300L43.669793365959755,300L46.53625805950439,300L49.49827157616717,300L52.460285092829956,300L55.13565214013827,300L58.0936844558378,300L60.96014914938243,300L63.92216266604521,300L66.78862735958984,300L69.75064087625263,300L72.7126543929154,300L75.57911908646004,300L78.54511380408607,300L81.4115784976307,300L84.37359201429348,300L87.33560553095627,300L90.01097257826459,300L92.96900489396411,300L95.83546958750874,300L98.79748310417152,300L101.66394779771615,300L104.62596131437893,300L107.58797483104172,300L110.45443952458633,300L113.4204342422124,299.31101638875L116.286898935757,300L119.2489124524198,300L122.21092596908257,299.3946340365L124.98184183950904,300L127.93987415520859,300L130.8063388487532,299.4423169875L133.76835236541598,300L136.6348170589606,298.941597342L139.5968305756234,299.46823973175L142.5588440922862,299.43105527925L145.4253087858308,300L148.39130350345687,298.4749588245L151.25776819700147,298.33249340475L154.21978171366428,296.66211018225L157.18179523032703,295.59864894825L159.85716227763535,299.137410507L162.8151945933349,298.68955957575L165.68165928687952,299.100201555L168.6436728035423,295.26102286125L171.51013749708693,293.209789221L174.4721510137497,295.15239119325L177.4341645304125,295.0227145215L180.30062922395712,297.153669327L183.26662394158316,297.87620843775L186.1330886351278,296.37801454875L189.09510215179057,294.44700058725L192.05711566845335,293.623363995L194.73248271576168,293.87572770825L197.69051503146122,292.69208283375L200.55697972500582,289.81376160825L203.51899324166862,291.2569714155L206.38545793521322,286.481462706L209.347471451876,291.757235316L212.3094849685388,288.27547228875L215.17594966208344,287.4326854185L218.14194437970949,279.30960034575L221.00840907325411,283.1166910005L223.9704225899169,283.28041307925L226.93243610657967,274.9980653265L229.60780315388797,277.8325513155L232.56583546958754,277.80947852325L235.4323001631321,265.563622221L238.39431367979495,267.56055363375L241.26077837333958,259.960987629L244.22279189000236,264.73692362175L247.1848054066651,255.12657692025L250.05127010020976,258.803192349L253.01726481783578,256.06153638225L255.8837295113804,251.11788736199998L258.8457430280432,243.03660625725L261.80775654470597,232.39170671624998L264.5786724151325,231.60037675875L267.53670473083196,242.91916741199998L270.4031694243766,225.18425367375L273.3651829410394,225.1329605895L276.231647634584,221.97492965024998L279.1936611512468,219.4200458565L282.1556746679096,204.96025344000003L285.0221393614542,208.31295843524998L287.9881340790802,201.34243223250002L290.85459877262485,215.30892079425L293.81661228928766,220.1127819555L296.77862580595047,220.682361597L299.45399285325874,209.3193706815L302.4120251689583,198.97993688025L305.2784898625029,189.50947061699998L308.24050337916566,174.21365890049998L311.1069680727103,184.05829571325L314.0689815893731,171.90399182925L317.0309951060359,175.64969541225L319.8974597995805,183.26191941675L322.86345451720655,179.34075362925L325.7299192107512,160.82163704250002L328.691932727414,143.60573571300003L331.65394624407674,158.40306283575L334.32931329138506,152.72352228300002L337.2873456070846,121.90133116799998L340.15381030062923,83.03883950625001L343.115823817292,116.2929384645L345.9822885108366,105.15047503500006L348.9443020274994,84.00595056525003L351.9063155441622,132.16797841725L354.77278023770685,108.63028813649998L357.7387749553329,106.249664502L360.6052396488775,97.70850270150001L363.5672531655403,75.388653342L366.52926668220306,98.77446271275L369.2046337295114,101.77900228800004L372.1626660452109,102.31660736774998L375.02913073875555,86.13349249050003L377.9911442554183,89.90743748025002L380.857608948963,70.38555914100002L383.81962246562574,106.66797560325L386.7816359822885,107.62791638024999L389.6481006758331,94.83218649074999L392.6140953934592,129.76149326025L395.4805600870038,77.72578380975L398.4425736036666,79.08166584900002L401.4045871203294,85.52223493275L404.17550299075583,103.47068103450002L407.13353530645537,102.12063537900002L410,81.68870023275" data-legend="apache-kafka" style="stroke: rgb(31, 119, 180); fill: none;"></path><path class="line" d="M2.9620135166627826,300L5.828478210207411,294.80825141925L8.79447292783345,300L11.660937621378078,300L14.622951138040861,300L17.584964654703644,300L20.260331702011964,300L23.21836401771149,292.905788877L26.08482871125612,300L29.0468422279189,294.64668094275L31.913306921463526,288.32793824775L34.875320438126316,297.688039458L37.837333954789095,290.8332569445L40.70379864833372,295.8371492805L43.669793365959755,298.03371522975L46.53625805950439,293.99263096125L49.49827157616717,289.91596638675003L52.460285092829956,284.82873325575L55.13565214013827,289.88263860825L58.0936844558378,284.91400985625L60.96014914938243,286.930509033L63.92216266604521,293.23055816325L66.78862735958984,288.8359630845L69.75064087625263,285.78693029325L72.7126543929154,277.8091919265L75.57911908646004,284.6342962515L78.54511380408607,287.011112715L81.4115784976307,282.658708941L84.37359201429348,287.75879169899997L87.33560553095627,287.28952051275L90.01097257826459,272.4130389405L92.96900489396411,289.78383645825L95.83546958750874,288.00971213325L98.79748310417152,280.288296303L101.66394779771615,279.094909113L104.62596131437893,288.09323695875L107.58797483104172,277.92884258925L110.45443952458633,277.05946778025L113.4204342422124,282.0864261045L116.286898935757,283.371891267L119.2489124524198,281.91821868675L122.21092596908257,280.02292319175L124.98184183950904,277.559691222L127.93987415520859,280.24511550825L130.8063388487532,267.654385248L133.76835236541598,269.6161313505L136.6348170589606,271.42312821525L139.5968305756234,269.15790443925L142.5588440922862,272.69065337625L145.4253087858308,271.37922030975L148.39130350345687,276.6160353L151.25776819700147,274.9874010615L154.21978171366428,274.7274056655L157.18179523032703,277.01516673L159.85716227763535,267.22159924125L162.8151945933349,276.84888583500003L165.68165928687952,278.8547365395L168.6436728035423,276.30511430475L171.51013749708693,266.04894610275L174.4721510137497,271.79573057925L177.4341645304125,271.0412481225L180.30062922395712,280.8889226235L183.26662394158316,270.26691812400003L186.1330886351278,275.55159820125L189.09510215179057,268.66521759825L192.05711566845335,266.12412122025L194.73248271576168,269.0183872275L197.69051503146122,259.99876919325L200.55697972500582,266.0458720275L203.51899324166862,257.66533527225L206.38545793521322,262.4015681505L209.347471451876,256.03858835025L212.3094849685388,263.4735867435L215.17594966208344,248.43067464825L218.14194437970949,261.317948472L221.00840907325411,262.8567202005L223.9704225899169,256.61945015175L226.93243610657967,246.87088881900002L229.60780315388797,253.68586614075L232.56583546958754,247.29751149225L235.4323001631321,255.4352758155L238.39431367979495,255.54594386775L241.26077837333958,248.79626302575L244.22279189000236,251.04655279275L247.1848054066651,247.50656168025L250.05127010020976,256.78374099375003L253.01726481783578,254.7940807005L255.8837295113804,258.5374937445L258.8457430280432,262.994583627L261.80775654470597,250.393914987L264.5786724151325,252.15764057475L267.53670473083196,248.28246711825L270.4031694243766,247.46979513225L273.3651829410394,246.81576435300002L276.231647634584,251.3942184705L279.1936611512468,248.079926454L282.1556746679096,239.72016074625L285.0221393614542,252.64988463825L287.9881340790802,250.02498750675L290.85459877262485,244.15972799625L293.81661228928766,249.1626794265L296.77862580595047,244.8225124155L299.45399285325874,251.6619785865L302.4120251689583,248.43327321975L305.2784898625029,248.1949166265L308.24050337916566,241.9773443415L311.1069680727103,239.5086760245L314.0689815893731,232.76023491375003L317.0309951060359,247.8380744805L319.8974597995805,248.0670896265L322.86345451720655,237.88283242425L325.7299192107512,252.74167526475L328.691932727414,248.18262327825L331.65394624407674,245.23602778725L334.32931329138506,244.061159799L337.2873456070846,240.01376428425L340.15381030062923,243.617162034L343.115823817292,237.29465632950001L345.9822885108366,235.5242447805L348.9443020274994,246.12068965575L351.9063155441622,243.0103104285L354.77278023770685,230.41101386775L357.7387749553329,234.07456116825L360.6052396488775,234.46895157975L363.5672531655403,231.354734505L366.52926668220306,245.44780830599998L369.2046337295114,242.964712923L372.1626660452109,254.38075554675L375.02913073875555,229.374316125L377.9911442554183,241.13348489775L380.857608948963,225.449856864L383.81962246562574,232.07253196875L386.7816359822885,238.8768502785L389.6481006758331,244.38983288925L392.6140953934592,232.1638437615L395.4805600870038,237.60723756075L398.4425736036666,235.676388651L401.4045871203294,238.97333694974998L404.17550299075583,241.843364796L407.13353530645537,253.99727591775L410,247.5797171865" data-legend="rabbitmq" style="stroke: rgb(255, 127, 14); fill: none;"></path><path class="line" d="M2.9620135166627826,273.0448533645L5.828478210207411,268.84950851475L8.79447292783345,258.20729183325L11.660937621378078,262.40287409175L14.622951138040861,271.39951697025L17.584964654703644,282.7853331045L20.260331702011964,285.20564158275L23.21836401771149,282.264472191L26.08482871125612,294.1316849895L29.0468422279189,286.61670235575L31.913306921463526,297.66558765L34.875320438126316,295.37607891525L37.837333954789095,288.54157118025L40.70379864833372,293.75572392L43.669793365959755,280.337152296L46.53625805950439,285.9828055755L49.49827157616717,288.23529411825L52.460285092829956,274.71455542575L55.13565214013827,282.65595189975L58.0936844558378,284.91400985625L60.96014914938243,278.21751505425L63.92216266604521,281.04556285725L66.78862735958984,281.39327180775L69.75064087625263,279.8648179155L72.7126543929154,285.206127951L75.57911908646004,281.088364617L78.54511380408607,288.0935199885L81.4115784976307,288.0778623975L84.37359201429348,286.817160291L87.33560553095627,278.21060659275L90.01097257826459,280.61456790375L92.96900489396411,283.496966586L95.83546958750874,288.00971213325L98.79748310417152,287.1115783515L101.66394779771615,282.0813506685L104.62596131437893,285.29164565475L107.58797483104172,281.6073688245L110.45443952458633,279.279519285L113.4204342422124,275.1965899905L116.286898935757,285.54077501475L119.2489124524198,272.231550126L122.21092596908257,280.62828915525L124.98184183950904,278.68170666075L127.93987415520859,276.75895942125L130.8063388487532,282.154143585L133.76835236541598,275.92221729675L136.6348170589606,279.3611481555L139.5968305756234,281.3883906105L142.5588440922862,278.38010058975L145.4253087858308,269.8728634845L148.39130350345687,273.057605889L151.25776819700147,276.09907212525L154.21978171366428,275.68108847025L157.18179523032703,273.10285468425L159.85716227763535,281.02303113975L162.8151945933349,275.97525888525L165.68165928687952,276.15534120375L168.6436728035423,274.4095234485L171.51013749708693,279.62936766225L174.4721510137497,274.439880837L177.4341645304125,265.61148214575L180.30062922395712,276.41611728L183.26662394158316,272.39070968625L186.1330886351278,284.15381364899997L189.09510215179057,275.01150264225L192.05711566845335,277.2832342305L194.73248271576168,280.186177878L197.69051503146122,278.84550293925L200.55697972500582,279.20309661675L203.51899324166862,272.39043604725L206.38545793521322,277.609922607L209.347471451876,272.06618634825L212.3094849685388,278.3547180705L215.17594966208344,279.1989275895L218.14194437970949,270.31377440925L221.00840907325411,271.05718457175L223.9704225899169,276.502202166L226.93243610657967,275.44452844575L229.60780315388797,279.0200932095L232.56583546958754,272.658107466L235.4323001631321,275.6919686265L238.39431367979495,275.9707804695L241.26077837333958,277.28556029025003L244.22279189000236,273.863837508L247.1848054066651,282.21996444L250.05127010020976,277.78603509L253.01726481783578,280.1431943265L255.8837295113804,272.06736420674997L258.8457430280432,277.9630666545L261.80775654470597,272.39661398475L264.5786724151325,276.07882028775L267.53670473083196,280.07917251975L270.4031694243766,282.091975614L273.3651829410394,282.4082912865L276.231647634584,283.37170631925L279.1936611512468,282.97021587675L282.1556746679096,274.04006922675L285.0221393614542,273.31175316L287.9881340790802,277.16658911925L290.85459877262485,281.85191159925L293.81661228928766,278.6397812715L296.77862580595047,282.75703512975L299.45399285325874,279.39076606425L302.4120251689583,275.484670875L305.2784898625029,273.28800388575L308.24050337916566,275.43566402775L311.1069680727103,279.8362253415L314.0689815893731,284.25397906275L317.0309951060359,281.836472364L319.8974597995805,280.91354576025003L322.86345451720655,284.35898658225L325.7299192107512,277.66914325724997L328.691932727414,280.21518343425L331.65394624407674,278.2917587625L334.32931329138506,280.771023681L337.2873456070846,278.609559357L340.15381030062923,283.31067996225L343.115823817292,277.95515261625L345.9822885108366,279.14019684075L348.9443020274994,282.3581019225L351.9063155441622,285.8832879045L354.77278023770685,283.543145172L357.7387749553329,283.896076011L360.6052396488775,280.625603076L363.5672531655403,286.87664042025L366.52926668220306,281.98748387475L369.2046337295114,280.36490117025L372.1626660452109,280.86934910025L375.02913073875555,280.60280513325L377.9911442554183,287.31325105575L380.857608948963,279.12595992225L383.81962246562574,282.8993786775L386.7816359822885,278.67797102775L389.6481006758331,286.0974582225L392.6140953934592,287.03767715175L395.4805600870038,285.86413976025L398.4425736036666,285.80444439225L401.4045871203294,280.10000118L404.17550299075583,279.54490761825L407.13353530645537,289.85234027625L410,289.45201626375" data-legend="activemq" style="stroke: rgb(44, 160, 44); fill: none;"></path></g></g><g transform="translate(20, 150)"><text transform="rotate(-90)" x="-50" y="0" dy="1em" class="axis-label y-axis-label" style="text-anchor: middle; font-weight: bold;">% of Stack Overflow questions that month</text></g><g class="legend" transform="translate(530, 30)" style="font-size: 12px;"><text class="legend-title" style="font-weight: bold;">Tag</text><g class="legend-items" transform="translate(0,20)"><text y="0em" x="1em">apache-kafka</text><text y="1em" x="1em">rabbitmq</text><text y="2em" x="1em">activemq</text><circle cy="-0.25em" cx="0" r="0.4em" style="fill: rgb(31, 119, 180);"></circle><circle cy="0.75em" cx="0" r="0.4em" style="fill: rgb(255, 127, 14);"></circle><circle cy="1.75em" cx="0" r="0.4em" style="fill: rgb(44, 160, 44);"></circle></g><rect class="legend-box"></rect></g></svg>
        